<?xml version="1.0" encoding="UTF-8" standalone="no"?>
<svg width="26px" height="26px" viewBox="0 0 26 26" version="1.1" xmlns="http://www.w3.org/2000/svg" xmlns:xlink="http://www.w3.org/1999/xlink" xmlns:sketch="http://www.bohemiancoding.com/sketch/ns">
    <!-- Generator: Sketch 3.1.1 (8761) - http://www.bohemiancoding.com/sketch -->
    <title>Artboard 1</title>
    <desc>Created with Sketch.</desc>
    <defs></defs>
    <g id="Page-1" stroke="none" stroke-width="1" fill="none" fill-rule="evenodd" sketch:type="MSPage">
        <g id="Artboard-1" sketch:type="MSArtboardGroup">
            <g id="print" sketch:type="MSLayerGroup" transform="translate(1.000000, 1.000000)">
                <rect id="Rectangle-path" sketch:type="MSShapeGroup" x="0" y="0" width="24" height="24"></rect>
                <circle id="Oval" fill="#000000" sketch:type="MSShapeGroup" cx="20.64" cy="10.08" r="0.96"></circle>
                <path d="M19.2,7.2 L19.2,0.48 L4.8,0.48 L4.8,7.2" id="Shape" stroke="#000000" stroke-width="2" sketch:type="MSShapeGroup"></path>
                <path d="M19.2,13.92 L19.2,23.52 L4.8,23.52 L4.8,13.92 L19.2,13.92 L19.2,13.92 Z" id="Shape" stroke="#000000" stroke-width="2" sketch:type="MSShapeGroup"></path>
                <path d="M4.8,19.2 L1.44,19.2 C0.91008,19.2 0.48,18.76992 0.48,18.24 L0.48,8.16 C0.48,7.63008 0.91008,7.2 1.44,7.2 L22.56,7.2 C23.08992,7.2 23.52,7.63008 23.52,8.16 L23.52,18.24 C23.52,18.76992 23.08992,19.2 22.56,19.2 L19.2,19.2" id="Shape" stroke="#000000" stroke-width="2" sketch:type="MSShapeGroup"></path>
                <path id="Shape" stroke="#000000" stroke-width="2" sketch:type="MSShapeGroup" d="M16.8,16.8 L7.2,16.8"></path>
                <path id="Shape" stroke="#000000" stroke-width="2" sketch:type="MSShapeGroup" d="M14.88,18.72 L7.2,18.72"></path>
                <path id="Shape" stroke="#000000" stroke-width="2" sketch:type="MSShapeGroup" d="M16.8,20.64 L7.2,20.64"></path>
            </g>
        </g>
    </g>
</svg>